<?xml version="1.0" standalone="no"?><!DOCTYPE svg PUBLIC "-//W3C//DTD SVG 1.1//EN" "http://www.w3.org/Graphics/SVG/1.1/DTD/svg11.dtd"><svg t="1758433857994" class="icon" viewBox="0 0 1024 1024" version="1.1" xmlns="http://www.w3.org/2000/svg" p-id="14025" xmlns:xlink="http://www.w3.org/1999/xlink" width="200" height="200"><path d="M128 640a85.333333 85.333333 0 0 1-85.333333-85.333333v-128a85.333333 85.333333 0 0 1 85.333333-85.333334v298.666667zM896 640a85.333333 85.333333 0 0 0 85.333333-85.333333v-128a85.333333 85.333333 0 0 0-85.333333-85.333334v298.666667z" p-id="14026" fill="#4E4E4E"></path><path d="M170.666667 298.666667a128 128 0 0 1 128-128h426.666666a128 128 0 0 1 128 128v426.666666a128 128 0 0 1-128 128H298.666667a128 128 0 0 1-128-128V298.666667z m170.666666 128v85.333333a42.666667 42.666667 0 1 0 85.333334 0v-85.333333a42.666667 42.666667 0 0 0-85.333334 0z m298.666667-42.666667a42.666667 42.666667 0 0 0-42.666667 42.666667v85.333333a42.666667 42.666667 0 1 0 85.333334 0v-85.333333a42.666667 42.666667 0 0 0-42.666667-42.666667z" p-id="14027" fill="#4E4E4E"></path></svg>