<?xml version="1.0" standalone="no"?><!DOCTYPE svg PUBLIC "-//W3C//DTD SVG 1.1//EN" "http://www.w3.org/Graphics/SVG/1.1/DTD/svg11.dtd"><svg t="1758720920733" class="icon" viewBox="0 0 1024 1024" version="1.1" xmlns="http://www.w3.org/2000/svg" p-id="1535" xmlns:xlink="http://www.w3.org/1999/xlink" width="200" height="200"><path d="M810.325333 128H213.333333C151.893333 128 102.4 177.493333 102.4 238.933333v545.792c0 61.44 49.493333 111.274667 110.933333 111.274667h596.992c61.44 0 111.274667-49.834667 111.274667-111.274667V238.933333c0-61.44-49.834667-110.933333-111.274667-110.933333zM512 815.786667c-19.114667 0-34.133333-15.018667-34.133333-33.792s15.018667-34.474667 34.133333-34.474667 34.133333 15.701333 34.133333 34.474667-15.018667 33.792-34.133333 33.792z m307.2-202.069334c0 29.696-24.234667 53.930667-53.930667 53.930667H258.730667c-29.696 0-53.930667-24.234667-53.930667-53.930667V284.330667c0-29.696 24.234667-53.930667 53.930667-53.930667h506.538666c29.696 0 53.930667 24.234667 53.930667 53.930667v329.386666z" p-id="1536"></path><path d="M364.612267 302.6944a34.133333 34.133333 0 1 0-47.957334 48.571733l67.072 66.218667-67.140266 66.56a34.133333 34.133333 0 0 0 48.093866 48.469333l91.613867-90.794666a34.2016 34.2016 0 0 0-0.068267-48.571734l-91.613866-90.453333zM620.3392 519.7824h-98.304a34.133333 34.133333 0 1 0 0 68.266667h98.304a34.133333 34.133333 0 1 0 0-68.266667z" p-id="1537"></path></svg>