<?xml version="1.0" standalone="no"?>
<!DOCTYPE svg PUBLIC "-//W3C//DTD SVG 1.1//EN" "http://www.w3.org/Graphics/SVG/1.1/DTD/svg11.dtd" >
<svg xmlns="http://www.w3.org/2000/svg">
  <metadata>Created by iconfont</metadata>
  <defs>
  <font id="iconfont" horiz-adv-x="1024">
    <font-face
      font-family="iconfont"
      font-weight="400"
      font-stretch="normal"
      units-per-em="1024"
      ascent="896"
      descent="-128"
    />
      <missing-glyph />
      
      <glyph glyph-name="up-square-fill" unicode="&#58895;" d="M213.333333 768h597.333334a85.333333 85.333333 0 0 0 85.333333-85.333333v-597.333334a85.333333 85.333333 0 0 0-85.333333-85.333333H213.333333a85.333333 85.333333 0 0 0-85.333333 85.333333V682.666667a85.333333 85.333333 0 0 0 85.333333 85.333333z m396.501334-456.832a42.666667 42.666667 0 0 1 60.330666 60.330667l-128 128a42.666667 42.666667 0 0 1-60.330666 0l-128-128a42.666667 42.666667 0 0 1 60.330666-60.330667L512 409.002667l97.834667-97.834667z"  horiz-adv-x="1024" />
      
      <glyph glyph-name="target_grammar" unicode="&#58964;" d="M853.333333 810.666667c-25.6 0-42.666667-17.066667-42.666666-42.666667v-682.666667c0-25.6-17.066667-42.666667-42.666667-42.666666H277.333333c-34.133333 0-64 8.533333-64 42.666666s29.866667 42.666667 64 42.666667H682.666667c25.6 0 42.666667 17.066667 42.666666 42.666667V768c0 25.6-17.066667 42.666667-42.666666 42.666667H213.333333c-46.933333 0-85.333333-38.4-85.333333-85.333334v-682.666666c0-46.933333 38.4-85.333333 85.333333-85.333334h597.333334c46.933333 0 85.333333 38.4 85.333333 85.333334V768c0 25.6-17.066667 42.666667-42.666667 42.666667zM307.2 537.6c4.266667 21.333333 17.066667 38.4 29.866667 55.466667 17.066667 12.8 34.133333 25.6 55.466666 29.866666 21.333333 8.533333 42.666667 12.8 68.266667 12.8 21.333333 0 38.4-4.266667 55.466667-8.533333 12.8-4.266667 29.866667-12.8 38.4-21.333333 12.8-8.533333 21.333333-17.066667 21.333333-21.333334 4.266667-8.533333 8.533333-17.066667 8.533333-25.6 0-12.8 0-17.066667-8.533333-25.6s-25.6-12.8-38.4-4.266666c-4.266667 0-8.533333 4.266667-12.8 8.533333-4.266667 12.8-12.8 21.333333-17.066667 25.6-8.533333 4.266667-12.8 8.533333-21.333333 12.8-8.533333 4.266667-21.333333 4.266667-34.133333 4.266667-12.8 0-25.6-4.266667-34.133334-8.533334-8.533333-4.266667-17.066667-12.8-25.6-21.333333-8.533333-8.533333-12.8-21.333333-12.8-29.866667-4.266667-12.8-4.266667-25.6-4.266666-42.666666 0-34.133333 4.266667-64 21.333333-81.066667 12.8-17.066667 34.133333-25.6 64-25.6 12.8 0 25.6 0 38.4 4.266667 12.8 0 21.333333 8.533333 34.133333 12.8v42.666666h-42.666666c-12.8 0-21.333333 0-29.866667 4.266667-8.533333 0-12.8 8.533333-12.8 21.333333 0 8.533333 4.266667 17.066667 8.533333 21.333334 8.533333 4.266667 17.066667 8.533333 25.6 8.533333h68.266667c8.533333 0 12.8-4.266667 21.333333-4.266667 8.533333-4.266667 12.8-8.533333 17.066667-12.8 4.266667-4.266667 8.533333-12.8 8.533333-25.6V384c0-8.533333-4.266667-17.066667-4.266666-21.333333s-4.266667-8.533333-8.533334-12.8c-4.266667-4.266667-8.533333-8.533333-17.066666-12.8-21.333333-8.533333-38.4-17.066667-55.466667-21.333334-17.066667-4.266667-34.133333-8.533333-55.466667-8.533333s-42.666667 4.266667-64 12.8-38.4 21.333333-51.2 34.133333c-17.066667 12.8-25.6 29.866667-34.133333 51.2s-12.8 42.666667-12.8 68.266667c0 21.333333 4.266667 46.933333 12.8 64z"  horiz-adv-x="1024" />
      
      <glyph glyph-name="expert" unicode="&#58881;" d="M194.97 329.72799999999995L194.97000001 148.48000000000002 512-23.55200001000003 829.02999999 148.48000000000002 829.03 329.523 512 157.49099999999999 194.97 329.72799999999995zM512 791.55200001L13.926 519.7819999999999 512 248.21799999999996l407.55200001 221.798 0-312.525 90.52199999 0L1010.074 519.7819999999999 512 791.55200001z"  horiz-adv-x="1024" />
      
      <glyph glyph-name="proofreading" unicode="&#59188;" d="M128 768a85.333333 85.333333 0 0 0 85.333333 85.333333h597.333334a85.333333 85.333333 0 0 0 85.333333-85.333333v-213.333333a42.666667 42.666667 0 1 0-85.333333 0V768H213.333333v-768h128a42.666667 42.666667 0 1 0 0-85.333333H213.333333a85.333333 85.333333 0 0 0-85.333333 85.333333V768zM298.666667 640a42.666667 42.666667 0 0 0 42.666666 42.666667h341.333334a42.666667 42.666667 0 1 0 0-85.333334H341.333333a42.666667 42.666667 0 0 0-42.666666 42.666667zM341.333333 512a42.666667 42.666667 0 1 1 0-85.333333h42.666667a42.666667 42.666667 0 1 1 0 85.333333H341.333333zM798.165333 328.832a42.666667 42.666667 0 0 1-60.330666 0L661.333333 252.330667l-33.834666 33.834666a42.666667 42.666667 0 0 1-60.330667-60.330666l64-64a42.666667 42.666667 0 0 1 60.330667 0l106.666666 106.666666a42.666667 42.666667 0 0 1 0 60.330667zM454.997333 430.677333a42.666667 42.666667 0 0 1-28.330666-40.192v-268.16a42.666667 42.666667 0 0 1 17.578666-34.56l213.333334-154.88a42.666667 42.666667 0 0 1 50.176 0l213.333333 154.88a42.666667 42.666667 0 0 1 17.578667 34.56v268.16a42.666667 42.666667 0 0 1-28.330667 40.192L711.381333 501.76a85.333333 85.333333 0 0 1-57.429333 0l-198.954667-71.082667zM853.333333 360.448v-216.405333l-170.666666-123.904-170.666667 123.904v216.405333l170.666667 60.928 170.666666-60.928z"  horiz-adv-x="1024" />
      
      <glyph glyph-name="translate" unicode="&#59130;" d="M85.312 682.688a128 128 0 0 0 128 128h85.376a128 128 0 0 0 128-128v-256H341.312V533.312H170.688v-106.624H85.312v256z m85.376-64h170.624v64a42.688 42.688 0 0 1-42.624 42.624H213.312a42.688 42.688 0 0 1-42.624-42.624v-64z m341.312 128h256a128 128 0 0 0 128-128V512h-85.312V618.688A42.688 42.688 0 0 1 768 661.312H512V746.688z m256-341.376v-64h170.688V256h-45.312a340.224 340.224 0 0 0-93.44-194.688c29.696-12.032 62.08-18.624 96.064-18.624h42.688v-85.376H896c-62.208 0-120.448 16.64-170.688 45.696a339.712 339.712 0 0 0-170.624-45.696H512v85.376h42.688c33.92 0 66.368 6.592 96 18.56a341.888 341.888 0 0 0-63.168 91.136l-18.304 38.528 77.12 36.608 18.304-38.528c14.72-30.976 35.456-58.56 60.672-81.152A255.552 255.552 0 0 1 807.104 256H512V341.312h170.688v64H768z m-512-64v-256c0-23.552 19.136-42.624 42.688-42.624h106.624v-85.376H298.688a128 128 0 0 0-128 128v256H256z"  horiz-adv-x="1024" />
      
      <glyph glyph-name="fanyi" unicode="&#58942;" d="M213.333 213.333v-42.666a85.333 85.333 0 0 1 78.934-85.12l6.4-0.214H384A42.667 42.667 0 0 0 384 0h-85.333A170.667 170.667 0 0 0 128 170.667v42.666a42.667 42.667 0 0 0 85.333 0z m560.043 242.603l170.667-426.667A21.333 21.333 0 0 0 924.203 0h-45.995a21.333 21.333 0 0 0-19.797 13.397L812.544 128H638.037l-45.781-114.603A21.333 21.333 0 0 0 572.416 0h-45.91a21.333 21.333 0 0 0-19.797 29.27l170.667 426.666a21.333 21.333 0 0 0 19.797 13.397h56.406a21.333 21.333 0 0 0 19.84-13.397zM725.333 346.24l-53.205-132.907h106.325l-53.12 132.907z m-384 443.093v-64h149.334A21.333 21.333 0 0 0 512 704v-256a21.333 21.333 0 0 0-21.333-21.333H341.333V320A21.333 21.333 0 0 0 320 298.667h-42.667A21.333 21.333 0 0 0 256 320V426.667H106.667A21.333 21.333 0 0 0 85.333 448V704a21.333 21.333 0 0 0 21.334 21.333H256v64a21.333 21.333 0 0 0 21.333 21.334H320a21.333 21.333 0 0 0 21.333-21.334z m384-21.333A170.667 170.667 0 0 0 896 597.333v-42.666a42.667 42.667 0 0 0-85.333 0v42.666a85.333 85.333 0 0 1-85.334 85.334H640A42.667 42.667 0 0 0 640 768h85.333zM256 640h-85.333v-128H256V640z m170.667 0h-85.334v-128h85.334V640z"  horiz-adv-x="1024" />
      
      <glyph glyph-name="uploadimg" unicode="&#59133;" d="M977.754839 142.864516 858.83871 142.864516 858.83871 261.780645c0 26.425806-19.819355 46.245161-46.245161 46.245161-26.425806 0-46.245161-19.819355-46.245161-46.245161l0-125.522581L634.219355 136.258065c-26.425806 0-46.245161-19.819355-46.245161-46.245161 0-26.425806 19.819355-46.245161 46.245161-46.245161l125.522581 0 0-125.522581c0-26.425806 19.819355-46.245161 46.245161-46.245161 26.425806 0 46.245161 19.819355 46.245161 46.245161l0 125.522581 125.522581 0c26.425806 0 46.245161 19.819355 46.245161 46.245161C1030.606452 116.43871 1004.180645 142.864516 977.754839 142.864516L977.754839 142.864516zM508.696774 10.735484 508.696774 10.735484 145.341935 10.735484c-26.425806 0-46.245161 19.819355-46.245161 46.245161L99.096774 750.658065c0 26.425806 19.819355 46.245161 46.245161 46.245161l687.070968 0c26.425806 0 46.245161-19.819355 46.245161-46.245161l0-350.141935 0 0c0 0 0 0 0 0 0-26.425806 19.819355-46.245161 46.245161-46.245161 26.425806 0 46.245161 19.819355 46.245161 46.245161 0 0 0 0 0 0l0 0 0 396.387097c0 52.851613-46.245161 99.096774-99.096774 99.096774L99.096774 896C46.245161 896 0 849.754839 0 796.903226l0-786.167742c0-52.851613 46.245161-99.096774 99.096774-99.096774l409.6 0 0 0c26.425806 0 46.245161 19.819355 46.245161 46.245161C554.941935-9.083871 535.122581 10.735484 508.696774 10.735484L508.696774 10.735484zM508.696774 156.077419c19.819355 39.63871 66.064516 66.064516 112.309677 66.064516l52.851613 0L673.858065 281.6c0 52.851613 33.032258 99.096774 79.277419 118.916129l0 0 0 0-66.064516 198.193548L455.845161 301.419355 389.780645 407.122581l-244.43871-251.045161L508.696774 156.077419 508.696774 156.077419zM389.780645 578.890323c0 39.63871-33.032258 72.670968-72.670968 72.670968-39.63871 0-72.670968-33.032258-72.670968-72.670968 0-39.63871 33.032258-72.670968 72.670968-72.670968C356.748387 506.219355 389.780645 539.251613 389.780645 578.890323L389.780645 578.890323zM389.780645 578.890323"  horiz-adv-x="1031" />
      
      <glyph glyph-name="license" unicode="&#59339;" d="M298.666667 896a298.88 298.88 0 0 0 292.864-357.248l-0.64-2.602667L1024 102.997333V-128h-273.664L640-17.664 639.957333 42.666667H512v128H384v140.416l-1.664-0.554667a298.922667 298.922667 0 0 0-69.418667-11.52L298.666667 298.666667c-164.778667 0-298.666667 133.888-298.666667 298.666666s133.888 298.666667 298.666667 298.666667z m0-85.333333C180.992 810.666667 85.333333 715.008 85.333333 597.333333a213.546667 213.546667 0 0 1 301.098667-194.56l26.88 12.245334L469.333333 358.997333v-102.954666L597.333333 256v-128h128v-110.293333L785.706667-42.666667H938.666667v110.293334L495.232 511.104l7.594667 24.576A209.493333 209.493333 0 0 1 512 597.333333c0 117.674667-95.658667 213.333333-213.333333 213.333334zM256 725.333333a85.333333 85.333333 0 1 0 0-170.666666 85.333333 85.333333 0 0 0 0 170.666666z"  horiz-adv-x="1024" />
      
      <glyph glyph-name="clear-formatting-1-filled" unicode="&#59064;" d="M598.613333 815.402667l412.032-412.032-356.053333-356.053334-11.52-11.52H853.333333v-85.333333H287.872l-156.416 156.416a170.666667 170.666667 0 0 0 0 241.365333l467.2 467.2z m-351.658666-472.32l-55.168-55.210667a85.333333 85.333333 0 0 1 0-120.661333l131.413333-131.413334h199.68l15.616 15.701334-291.541333 291.541333z"  horiz-adv-x="1024" />
      
      <glyph glyph-name="dark_mode" unicode="&#58961;" d="M334.08 791.232c7.04 12.416-6.08 26.368-19.008 20.288a469.44 469.44 0 0 1-270.08-425.088 468.736 468.736 0 0 1 469.44-469.44 469.44 469.44 0 0 1 425.088 270.08c6.08 12.928-7.872 26.048-20.288 19.008a427.328 427.328 0 0 0-211.392-55.552c-237.312 0-429.312 192-429.312 429.312 0 76.8 20.16 148.992 55.552 211.392z m434.432-200.256a19.776 19.776 0 0 1-37.12 0l-18.368-50.56a131.648 131.648 0 0 0-78.72-78.72l-50.56-18.368a19.776 19.776 0 0 1 0-37.12l50.56-18.368a131.648 131.648 0 0 0 78.72-78.72l18.368-50.56c6.336-17.28 30.848-17.28 37.12 0l18.368 50.56a131.712 131.712 0 0 0 78.72 78.72l50.56 18.368a19.776 19.776 0 0 1 0 37.12l-50.56 18.432a131.648 131.648 0 0 0-78.72 78.72l-18.368 50.56zM550.592 790.464a16.32 16.32 0 0 1-30.72 0l-3.584-9.984a67.52 67.52 0 0 0-40.32-40.32l-9.984-3.648a16.32 16.32 0 0 1 0-30.656l9.92-3.648c18.816-6.784 33.6-21.568 40.384-40.32l3.648-9.984a16.32 16.32 0 0 1 30.656 0l3.584 9.984c6.848 18.752 21.632 33.536 40.384 40.32l9.984 3.648a16.32 16.32 0 0 1 0 30.656l-9.984 3.584a67.52 67.52 0 0 0-40.32 40.384l-3.648 9.984z"  horiz-adv-x="1024" />
      
      <glyph glyph-name="light_mode" unicode="&#61002;" d="M512 597.333333c-117.76 0-213.333333-95.573333-213.333333-213.333333s95.573333-213.333333 213.333333-213.333333 213.333333 95.573333 213.333333 213.333333-95.573333 213.333333-213.333333 213.333333zM85.333333 341.333333h85.333334c23.466667 0 42.666667 19.2 42.666666 42.666667s-19.2 42.666667-42.666666 42.666667H85.333333c-23.466667 0-42.666667-19.2-42.666666-42.666667s19.2-42.666667 42.666666-42.666667z m768 0h85.333334c23.466667 0 42.666667 19.2 42.666666 42.666667s-19.2 42.666667-42.666666 42.666667h-85.333334c-23.466667 0-42.666667-19.2-42.666666-42.666667s19.2-42.666667 42.666666-42.666667zM469.333333 810.666667v-85.333334c0-23.466667 19.2-42.666667 42.666667-42.666666s42.666667 19.2 42.666667 42.666666V810.666667c0 23.466667-19.2 42.666667-42.666667 42.666666s-42.666667-19.2-42.666667-42.666666z m0-768v-85.333334c0-23.466667 19.2-42.666667 42.666667-42.666666s42.666667 19.2 42.666667 42.666666v85.333334c0 23.466667-19.2 42.666667-42.666667 42.666666s-42.666667-19.2-42.666667-42.666666zM255.573333 700.586667a42.496 42.496 0 0 1-60.16 0 42.496 42.496 0 0 1 0-60.16l45.226667-45.226667c16.64-16.64 43.946667-16.64 60.16 0s16.64 43.946667 0 60.16L255.573333 700.586667z m527.786667-527.786667a42.496 42.496 0 0 1-60.16 0 42.496 42.496 0 0 1 0-60.16l45.226667-45.226667c16.64-16.64 43.946667-16.64 60.16 0a42.496 42.496 0 0 1 0 60.16l-45.226667 45.226667z m45.226667 467.626667a42.496 42.496 0 0 1 0 60.16 42.496 42.496 0 0 1-60.16 0l-45.226667-45.226667c-16.64-16.64-16.64-43.946667 0-60.16s43.946667-16.64 60.16 0l45.226667 45.226667zM300.8 112.64a42.496 42.496 0 0 1 0 60.16 42.496 42.496 0 0 1-60.16 0l-45.226667-45.226667c-16.64-16.64-16.64-43.946667 0-60.16s43.946667-16.64 60.16 0l45.226667 45.226667z"  horiz-adv-x="1024" />
      
      <glyph glyph-name="settings" unicode="&#58909;" d="M813.666 376.542a15 15 0 0 1 0 15l-144.338 250a15 15 0 0 1-12.99 7.5H367.66a15 15 0 0 1-12.99-7.5l-144.338-250a15 15 0 0 1 0-15l144.338-250a15 15 0 0 1 12.99-7.5H656.34a15 15 0 0 1 12.99 7.5l144.338 250z m-66.396-295a105 105 0 0 0-90.932-52.5H367.66a105 105 0 0 0-90.932 52.5l-144.338 250a105 105 0 0 0 0 105l144.338 250a105 105 0 0 0 90.932 52.5H656.34a105 105 0 0 0 90.932-52.5l144.338-250a105 105 0 0 0 0-105l-144.338-250zM512 239c-80.08 0-145 64.92-145 145s64.92 145 145 145 145-64.92 145-145-64.92-145-145-145z m0 90c30.376 0 55 24.624 55 55s-24.624 55-55 55-55-24.624-55-55 24.624-55 55-55z"  horiz-adv-x="1024" />
      
      <glyph glyph-name="select" unicode="&#59173;" d="M659.104 273.824c-20.16-19.776-31.296-54.336-26.56-82.24l19.136-112.352-99.84 52.896h-0.032c-24.992 13.216-61.28 13.216-86.272 0l-99.84-52.928 19.104 112.416c4.768 27.84-6.4 62.4-26.56 82.208L277.056 353.6l112.064 16.416c27.904 4.096 57.216 25.504 69.696 50.944l49.888 101.888 49.92-101.888c12.448-25.408 41.76-46.848 69.664-50.944l112.096-16.416-81.28-79.808z m149.28 56.928c14.976 14.72 20.384 32.928 14.816 49.92-5.536 17.056-20.608 28.48-41.312 31.552l-144.32 21.12c-6.944 1.056-18.4 9.44-21.504 15.808l-64.576 131.84c-9.28 18.88-24.864 29.76-42.816 29.76-17.92 0-33.536-10.88-42.816-29.76l-64.544-131.84c-3.136-6.336-14.56-14.752-21.504-15.776l-144.32-21.12c-20.704-3.04-35.776-14.528-41.344-31.552-5.568-17.024-0.16-35.232 14.848-49.952l104.448-102.624c5.056-4.96 9.472-18.688 8.288-25.76l-24.672-144.896c-3.52-20.8 2.784-38.752 17.344-49.28 7.488-5.44 16.192-8.128 25.408-8.128 8.608 0 17.6 2.368 26.56 7.104l129.088 68.384c6.208 3.264 20.288 3.264 26.432 0l129.088-68.384c18.496-9.824 37.44-9.44 52 1.056 14.56 10.496 20.864 28.448 17.344 49.28l-24.672 144.896c-1.216 7.04 3.2 20.768 8.288 25.76l104.448 102.592zM301.216 494.656a32 32 0 0 1 32 32V695.328a32 32 0 0 1-64 0v-168.672a32 32 0 0 1 32-32M429.216 590.656a32 32 0 0 1 32 32V695.328a32 32 0 0 1-64 0v-72.672a32 32 0 0 1 32-32M589.216 590.656a32 32 0 0 1 32 32V695.328a32 32 0 0 1-64 0v-72.672a32 32 0 0 1 32-32M717.216 503.328a32 32 0 0 1 32 32V704a32 32 0 0 1-64 0v-168.672a32 32 0 0 1 32-32"  horiz-adv-x="1024" />
      
      <glyph glyph-name="prompt" unicode="&#58918;" d="M519.059456 238.198784h-0.475136c-16.386048-0.090112-30.963712-6.285312-43.354112-18.294784-12.673024-12.292096-18.006016-27.633664-16.00512-45.733888 1.9968-17.821696 9.43104-31.73376 22.009856-41.449472 12.005376-9.248768 24.776704-13.914112 37.82656-13.914112h0.95232c15.437824 0 29.34784 5.62176 41.449472 16.676864 12.199936 11.143168 18.487296 25.540608 18.675712 42.784768 0 16.480256-6.191104 30.775296-18.481152 42.496-12.101632 11.6224-26.39872 17.434624-42.5984 17.434624zM632.819712 587.044864c-7.620608 8.572928-17.534976 17.149952-29.540352 25.63072-12.101632 8.480768-26.580992 15.439872-43.065344 20.676608-15.8208 5.04832-33.35168 7.524352-52.035584 7.524352h-2.57024c-14.866432-0.188416-29.444096-1.998848-43.358208-5.14048-13.910016-3.149824-27.82208-8.00768-41.25696-14.391296-13.723648-6.479872-25.823232-15.149056-36.018176-25.729024-10.196992-10.477568-18.388992-22.009856-24.295424-34.107392-6.006784-12.101632-10.866688-28.1088-14.678016-47.644672-2.47808-13.340672-2.57024-24.963072-0.28672-34.398208 2.381824-10.196992 7.909376-17.911808 16.390144-22.769664 7.622656-4.386816 16.101376-6.672384 25.249792-6.672384h1.429504c5.718016 0 11.81696 1.14688 18.10432 3.4304 6.955008 2.476032 12.193792 6.57408 15.529984 12.099584 3.14368 5.052416 6.004736 13.817856 8.671232 26.871808 2.383872 11.626496 6.098944 21.62688 11.147264 29.822976 4.864 8.003584 13.152256 15.724544 24.774656 22.77376 10.100736 6.193152 23.156736 9.433088 38.68672 9.433088 1.90464 0 3.905536-0.094208 5.814272-0.094208 15.347712-0.854016 29.5424-5.812224 42.217472-14.768128 12.388352-8.76544 19.05664-18.388992 20.29568-29.536256 1.048576-10.19904-2.381824-20.201472-10.481664-30.492672a167.667712 167.667712 0 0 0-29.444096-29.253632l-17.815552-14.006272c-12.967936-10.766336-23.160832-22.867968-30.500864-36.018176-7.5264-13.531136-11.241472-33.062912-11.241472-59.648v-40.873984c0-12.679168 3.999744-22.591488 11.907072-29.356032 6.8608-5.90848 16.484352-8.8576 28.686336-8.8576 1.624064 0 3.33824 0.09216 5.052416 0.190464 14.866432 0.858112 24.96512 4.384768 30.96576 10.672128 5.912576 6.193152 8.957952 13.43488 8.957952 21.53472V339.68128c0 9.908224 1.048576 17.62304 3.241984 22.960128a38.77888 38.77888 0 0 0 9.24672 13.725696c4.472832 4.284416 16.384 13.811712 35.254272 28.391424 19.628032 15.151104 33.439744 29.72672 41.068544 43.35616 7.620608 13.717504 12.003328 30.298112 12.957696 49.354752 0.759808 18.393088-2.002944 36.022272-8.101888 52.219904-6.0928 15.91296-13.14816 28.585984-20.959232 37.35552zM511.797248 814.053376c-237.129728 0-430.006272-192.876544-430.006272-430.004224 0-4.25984 0.08192-8.501248 0.2048-12.734464v-416.495616H486.05184c8.51968-0.505856 17.1008-0.772096 25.745408-0.772096 237.12768 0 430.002176 192.874496 430.002176 430.002176-0.106496 237.129728-192.976896 430.004224-430.002176 430.004224z m23.394304-788.211712v-0.129024h-2.004992c-7.079936-0.417792-14.209024-0.65536-21.393408-0.65536l0.004096-0.004096c-7.20896 0-14.360576 0.237568-21.46304 0.659456h-186.701824c-0.21504 0.13312-0.436224 0.258048-0.651264 0.391168H153.284608v120.784896c0.135168-0.202752 0.264192-0.4096 0.39936-0.612352V359.000064c-0.57344 8.280064-0.888832 16.62976-0.888832 25.053184 0 197.906432 160.987136 358.995968 359.002112 358.995968 198.012928 0 358.89152-161.089536 358.89152-358.995968 0.002048-190.040064-148.45952-346.109952-335.497216-358.211584z"  horiz-adv-x="1024" />
      
      <glyph glyph-name="Target" unicode="&#58889;" d="M506.304 566.688c-104.064 0-187.328-83.008-187.328-181.632a186.304 186.304 0 0 1 187.328-186.848 186.304 186.304 0 0 1 187.36 186.848c0 36.32-15.616 72.672-31.232 98.624l-62.496-57.12c5.28-10.4 10.496-25.92 10.496-41.504 0-62.304-46.848-109.024-104.128-109.024-62.464 0-109.28 46.72-109.28 109.024 0 57.088 46.816 103.776 109.28 103.776 15.584 0 31.232-5.152 46.816-10.368l57.312 57.088a188.16 188.16 0 0 1-104.128 31.136z m218.624 114.208c-5.28 0-5.28 0-5.28-5.216l-67.616-67.456c-5.184-5.216-10.464-10.4-10.464-20.8l5.28-36.288-119.744-119.392c-5.216 0-15.584 5.216-20.8 5.216-15.616 0-31.2-5.216-41.6-15.584-20.832-20.704-20.832-57.12 0-77.888 10.4-10.336 26.016-15.52 41.6-15.52 10.4 0 25.984 5.184 36.448 15.52 15.616 15.584 20.832 41.568 10.368 62.336l119.712 119.36 41.6-5.216c5.216 0 15.648 0 20.832 5.216l67.648 67.456c5.216 5.216 0 10.4-5.216 10.4l-62.432 5.216-5.184 67.456c-5.152 0-5.152 5.184-5.152 5.184z m-218.624 20.768c-176.928 0-317.44-145.344-317.44-316.608 0-176.448 140.544-321.824 317.44-321.824s317.44 145.376 317.44 321.824c0 57.088-15.584 114.176-46.816 160.896l-31.264-31.168c-5.216-5.184-15.584-10.368-20.736-10.368 15.52-36.352 25.952-77.888 25.952-119.36 0-140.192-109.312-249.152-244.576-249.152-140.512 0-249.76 108.928-249.76 249.152 0 134.912 109.28 243.936 249.76 243.936 41.632 0 83.264-10.4 119.744-31.136 0 10.4 5.152 15.552 10.336 20.736l36.48 36.352a323.328 323.328 0 0 1-166.56 46.72"  horiz-adv-x="1024" />
      
      <glyph glyph-name="menu-" unicode="&#58880;" d="M597.333333 341.333333h281.6c9.386667 0 17.066667-7.68 17.066667-17.066666V85.333333a85.333333 85.333333 0 0 0-85.333333-85.333333h-238.933334a17.066667 17.066667 0 0 0-17.066666 17.066667V298.666667a42.666667 42.666667 0 0 0 42.666666 42.666666z m42.666667-102.4v-136.533333c0-9.386667 7.68-17.066667 17.066667-17.066667h136.533333a17.066667 17.066667 0 0 1 17.066667 17.066667v136.533333a17.066667 17.066667 0 0 1-17.066667 17.066667h-136.533333a17.066667 17.066667 0 0 1-17.066667-17.066667zM213.333333 768h238.933334c9.386667 0 17.066667-7.68 17.066666-17.066667V469.333333a42.666667 42.666667 0 0 0-42.666666-42.666666H145.066667a17.066667 17.066667 0 0 0-17.066667 17.066666V682.666667a85.333333 85.333333 0 0 0 85.333333 85.333333z m17.066667-256h136.533333a17.066667 17.066667 0 0 1 17.066667 17.066667V665.6a17.066667 17.066667 0 0 1-17.066667 17.066667H230.4a17.066667 17.066667 0 0 1-17.066667-17.066667v-136.533333c0-9.386667 7.68-17.066667 17.066667-17.066667z m-85.333333-170.666667H426.666667a42.666667 42.666667 0 0 0 42.666666-42.666666v-281.6a17.066667 17.066667 0 0 0-17.066666-17.066667H213.333333a85.333333 85.333333 0 0 0-85.333333 85.333333v238.933334c0 9.386667 7.68 17.066667 17.066667 17.066666zM213.333333 238.933333v-136.533333c0-9.386667 7.68-17.066667 17.066667-17.066667h136.533333a17.066667 17.066667 0 0 1 17.066667 17.066667v136.533333a17.066667 17.066667 0 0 1-17.066667 17.066667H230.4a17.066667 17.066667 0 0 1-17.066667-17.066667zM571.733333 768H810.666667a85.333333 85.333333 0 0 0 85.333333-85.333333v-238.933334a17.066667 17.066667 0 0 0-17.066667-17.066666H597.333333a42.666667 42.666667 0 0 0-42.666666 42.666666V750.933333c0 9.386667 7.68 17.066667 17.066666 17.066667zM640 665.6v-136.533333c0-9.386667 7.68-17.066667 17.066667-17.066667h136.533333a17.066667 17.066667 0 0 1 17.066667 17.066667V665.6a17.066667 17.066667 0 0 1-17.066667 17.066667h-136.533333a17.066667 17.066667 0 0 1-17.066667-17.066667z"  horiz-adv-x="1024" />
      
      <glyph glyph-name="livesupportagentheadset" unicode="&#59317;" d="M798.016 236.16a45.632 45.632 0 0 0-47.04 45.952v225.28c0 116.352-97.152 211.328-216.256 211.328h-45.44c-119.04 0-216.256-94.976-216.256-211.392v-225.216a45.696 45.696 0 0 0-47.04-45.952 45.632 45.632 0 0 0-46.976 45.952v225.28c0 166.912 139.52 303.296 310.272 303.296h45.44c170.816 0 310.272-136.32 310.272-303.36v-225.216a46.592 46.592 0 0 0-46.976-45.952zM225.984 214.72h-136.32a45.696 45.696 0 0 0-46.976 45.952v217.6c0 25.984 20.352 45.888 46.976 45.888h136.32c26.688 0 47.04-19.84 47.04-45.952v-217.536a46.656 46.656 0 0 0-47.04-45.952zM136.704 306.624h42.24V432.256h-42.24v-125.632zM934.336 214.72h-136.32a45.696 45.696 0 0 0-47.04 45.952v217.6c0 25.984 20.352 45.888 47.04 45.888h136.32c26.624 0 46.976-19.84 46.976-45.952v-217.536a46.656 46.656 0 0 0-46.976-45.952z m-89.344 91.904h42.304V432.256h-42.24v-125.632zM511.232-42.688c38.08 0 68.928 30.208 68.928 67.456 0 37.184-30.848 67.392-68.928 67.392s-68.992-30.208-68.992-67.392c0-37.248 30.912-67.456 68.992-67.456zM401.536 387.84c24.192 0 43.84 19.2 43.84 42.88 0 23.68-19.648 42.88-43.84 42.88-24.256 0-43.904-19.2-43.904-42.88 0-23.68 19.648-42.88 43.904-42.88zM620.928 387.84c24.192 0 43.84 19.2 43.84 42.88 0 23.68-19.648 42.88-43.84 42.88-24.256 0-43.904-19.2-43.904-42.88 0-23.68 19.648-42.88 43.904-42.88zM550.4-27.328h-39.168a45.696 45.696 0 0 0-47.04 45.952c0 26.048 20.352 45.952 47.04 45.952H550.4c109.696 0 200.576 87.296 200.576 196.096 0 26.048 20.352 45.952 47.04 45.952 26.624 0 46.976-19.84 46.976-45.952 0-159.36-131.648-288-294.592-288z"  horiz-adv-x="1024" />
      
      <glyph glyph-name="settings1" unicode="&#58914;" d="M359.893333 763.797333A64 64 0 0 0 421.546667 810.666667h180.906666a64 64 0 0 0 61.653334-46.869334l21.824-78.549333 78.933333 20.394667a64 64 0 0 0 71.424-29.973334l90.453333-156.672a64 64 0 0 0-9.770666-76.842666L859.882667 384l57.088-58.154667a64 64 0 0 0 9.770666-76.842666l-90.453333-156.672a64 64 0 0 0-71.424-29.973334l-78.933333 20.394667-21.802667-78.549333A64 64 0 0 0 602.453333-42.666667h-180.906666a64 64 0 0 0-61.653334 46.869334l-21.824 78.528-78.933333-20.373334A64 64 0 0 0 187.733333 92.330667l-90.453333 156.672a64 64 0 0 0 9.749333 76.842666L164.138667 384l-57.109334 58.154667a64 64 0 0 0-9.749333 76.842666l90.453333 156.672a64 64 0 0 0 71.424 29.973334l78.912-20.373334 21.802667 78.506667z m-27.434666-660.885333zM437.76 725.333333l-23.082667-83.093333a64 64 0 0 0-77.653333-44.842667l-83.498667 21.546667-74.24-128.576 60.416-61.525333a64 64 0 0 0 0-89.685334l-60.416-61.525333 74.24-128.597333 83.498667 21.546666a64 64 0 0 0 77.653333-44.821333L437.76 42.666667h148.48l23.082667 83.093333a64 64 0 0 0 77.653333 44.842667l83.52-21.546667 74.24 128.576-60.437333 61.525333a64 64 0 0 0 0 89.685334l60.437333 61.525333-74.24 128.597333-83.52-21.568a64 64 0 0 0-77.653333 44.842667L586.24 725.333333h-148.48zM512 469.333333a85.333333 85.333333 0 1 1 0-170.666666 85.333333 85.333333 0 0 1 0 170.666666z m-170.666667-85.333333a170.666667 170.666667 0 1 0 341.333334 0 170.666667 170.666667 0 0 0-341.333334 0z"  horiz-adv-x="1024" />
      
      <glyph glyph-name="dark-mode" unicode="&#59585;" d="M0 896h1024v-1024H0zM512 800c22.08 0 43.904-1.728 65.408-5.12l51.392-8.128-30.464-42.24a288 288 0 0 1 272.512-453.952l51.456 6.976-16.896-49.088A416.128 416.128 0 0 0 96 384 416 416 0 0 0 512 800z m0-64a352 352 0 1 1 309.12-520.512l4.544 8.64-7.808 0.128A352 352 0 0 0 480.256 561.92L480 576c0 51.84 11.264 102.08 32.448 147.84l5.824 12.032L512 736z"  horiz-adv-x="1024" />
      
      <glyph glyph-name="remind-dark-mode" unicode="&#59285;" d="M512 128c141.385143 0 256 114.614857 256 256S653.385143 640 512 640 256 525.385143 256 384 370.614857 128 512 128z m0 58.660571V581.339429a197.339429 197.339429 0 1 0 0-394.678858zM512-21.333333c223.865905 0 405.333333 181.467429 405.333333 405.333333S735.865905 789.333333 512 789.333333 106.666667 607.865905 106.666667 384 288.134095-21.333333 512-21.333333z m0 58.660571c-191.463619 0-346.672762 155.209143-346.672762 346.672762S320.536381 730.672762 512 730.672762 858.672762 575.463619 858.672762 384 703.463619 37.327238 512 37.327238z"  horiz-adv-x="1024" />
      
      <glyph glyph-name="market_new_tab" unicode="&#59132;" d="M480 792.96a48 48 0 0 0 0-96H252.8c-44.16 0-80-35.84-80-80v-505.28c0-44.16 35.84-80 80-80h524.16c44.224 0 80 35.84 80 80V418.56a48 48 0 0 0 96 0v-306.88a176 176 0 0 0-176-176H252.8a176 176 0 0 0-176 176V616.96a176 176 0 0 0 176 176H480z m278.528 26.432a48 48 0 0 0 48-48L806.4 687.232h98.56a48 48 0 1 0 0-96H806.4v-97.92a48 48 0 1 0-96 0v97.92H611.968a48 48 0 0 0 0 96h98.496V771.392a48 48 0 0 0 48 48z"  horiz-adv-x="1024" />
      
      <glyph glyph-name="a-CommandPrompt" unicode="&#59025;" d="M810.325333 768H213.333333C151.893333 768 102.4 718.506667 102.4 657.066667v-545.792c0-61.44 49.493333-111.274667 110.933333-111.274667h596.992c61.44 0 111.274667 49.834667 111.274667 111.274667V657.066667c0 61.44-49.834667 110.933333-111.274667 110.933333zM512 80.213333c-19.114667 0-34.133333 15.018667-34.133333 33.792s15.018667 34.474667 34.133333 34.474667 34.133333-15.701333 34.133333-34.474667-15.018667-33.792-34.133333-33.792z m307.2 202.069334c0-29.696-24.234667-53.930667-53.930667-53.930667H258.730667c-29.696 0-53.930667 24.234667-53.930667 53.930667V611.669333c0 29.696 24.234667 53.930667 53.930667 53.930667h506.538666c29.696 0 53.930667-24.234667 53.930667-53.930667v-329.386666zM364.612267 593.3056a34.133333 34.133333 0 1 1-47.957334-48.571733l67.072-66.218667-67.140266-66.56a34.133333 34.133333 0 0 1 48.093866-48.469333l91.613867 90.794666a34.2016 34.2016 0 0 1-0.068267 48.571734l-91.613866 90.453333zM620.3392 376.2176h-98.304a34.133333 34.133333 0 1 1 0-68.266667h98.304a34.133333 34.133333 0 1 1 0 68.266667z"  horiz-adv-x="1024" />
      
      <glyph glyph-name="agentguanli" unicode="&#58985;" d="M811.328 757.76c18.816 0 34.432-13.76 37.312-31.872l0.512-6.144v-230.656c0-18.88-13.696-34.56-31.68-37.568l-6.144-0.448H546.56v-77.696h264.768c18.816 0 34.432-13.76 37.312-31.872l0.512-6.144v-115.712h37.824c18.816 0 34.368-13.824 37.312-31.872l0.512-6.208v-153.728c0-18.944-13.696-34.56-31.68-37.568l-6.144-0.512h-151.296a37.888 37.888 0 0 0-37.312 31.872l-0.448 6.208v153.728c0 18.944 13.696 34.624 31.68 37.568l6.08 0.512h37.824V297.344H546.56v-77.696h37.888c18.816 0 34.368-13.824 37.312-31.872l0.512-6.208v-153.728c0-18.944-13.76-34.56-31.68-37.568l-6.144-0.512H433.152a37.888 37.888 0 0 0-37.312 31.872l-0.512 6.208v153.728c0 18.944 13.76 34.624 31.68 37.568l6.144 0.512h37.824V297.344H244.096l-0.064-77.696h37.888c18.752 0 34.368-13.824 37.312-31.872l0.448-6.208v-153.728c0-18.944-13.696-34.56-31.68-37.568l-6.08-0.512H130.56a37.888 37.888 0 0 0-37.312 31.872l-0.512 6.208v153.728c0 18.944 13.696 34.624 31.68 37.568l6.144 0.512h37.76V335.36c0 18.88 13.76 34.56 31.744 37.568l6.144 0.448h264.704V451.072H206.272a37.888 37.888 0 0 0-37.312 31.872l-0.512 6.144V719.744c0 18.88 13.696 34.56 31.68 37.568l6.144 0.448h605.056z m-453.76-115.328h-37.888l-6.08-0.448a38.016 38.016 0 0 1-31.68-37.568c0-20.992 16.896-38.08 37.76-38.08h37.824l6.144 0.512a38.016 38.016 0 0 1 31.68 37.568 37.952 37.952 0 0 1-37.76 38.016z"  horiz-adv-x="1024" />
      
      <glyph glyph-name="a-AgentManagement" unicode="&#58943;" d="M490.96 768a110.88 110.88 0 0 0 71.504-26.032 108.64 108.64 0 0 0 37.312-65.696 107.968 107.968 0 0 0-14.72-73.92 109.952 109.952 0 0 0-59.712-46.8l-0.112-37.584h92.128c48.4 0 95.632-14.656 135.328-42.032a234.368 234.368 0 0 0 86.704-111.008 33.568 33.568 0 0 0-8.896-36.64 34.352 34.352 0 0 0-24.624-8.992 34.608 34.608 0 0 0-13.008 3.088 34.064 34.064 0 0 0-17.808 19.056 166.464 166.464 0 0 1-61.6 78.832 169.344 169.344 0 0 1-96.096 29.84h-252.8c-22.08 0-43.92-4.288-64.304-12.624a168.16 168.16 0 0 1-54.512-36 166.048 166.048 0 0 1-36.432-53.888c-8.448-20.16-12.8-41.76-12.8-63.584v-50.032c-0.016-21.824 4.32-43.44 12.768-63.616a166.064 166.064 0 0 1 36.432-53.92c15.6-15.44 34.128-27.68 54.528-36.032 20.384-8.352 42.24-12.64 64.32-12.64h252.8a34.592 34.592 0 0 0 25.12-9.44 33.888 33.888 0 0 0 10.544-24.432 33.568 33.568 0 0 0-10.528-24.448 34.336 34.336 0 0 0-25.12-9.44H364.544c-62.736 0-122.912 24.656-167.28 68.544A232.656 232.656 0 0 0 128 233.968v50.032a232.656 232.656 0 0 0 69.328 165.36 237.904 237.904 0 0 0 167.232 68.48l92.128 0.064v37.568a109.952 109.952 0 0 0-59.824 46.752 107.952 107.952 0 0 0-14.784 73.984 108.64 108.64 0 0 0 37.328 65.76A110.88 110.88 0 0 0 490.96 768z m280.32-508.96a13.696 13.696 0 0 0 11.584-11.472 119.664 119.664 0 0 1 30.4-62.432 121.808 121.808 0 0 1 60.24-35.456l10.528-2.08c3.328-0.48 6.368-2.112 8.56-4.624a13.68 13.68 0 0 0 0-18.048 13.968 13.968 0 0 0-8.56-4.608 122.08 122.08 0 0 1-63.184-30.048 119.936 119.936 0 0 1-35.872-59.584l-2.112-10.416a13.728 13.728 0 0 0-4.64-8.464 14.016 14.016 0 0 0-18.256 0 13.728 13.728 0 0 0-4.656 8.464 119.664 119.664 0 0 1-30.4 62.48 121.792 121.792 0 0 1-60.24 35.488l-10.48 2.08a13.968 13.968 0 0 0-8.56 4.608 13.68 13.68 0 0 0 0 18.048 13.968 13.968 0 0 0 8.56 4.608 122.08 122.08 0 0 1 63.152 30.08 119.936 119.936 0 0 1 35.84 59.552l2.128 10.368a13.68 13.68 0 0 0 5.568 9.024 13.952 13.952 0 0 0 10.4 2.448z m-406.72 74.944a51.088 51.088 0 0 0 36.848-14.048 50 50 0 0 0 15.408-35.952 49.552 49.552 0 0 0-15.408-35.952 50.688 50.688 0 0 0-36.848-14.048 50.848 50.848 0 0 0-34.688 15.216 49.744 49.744 0 0 0-14.224 34.784c0 12.976 5.104 25.456 14.24 34.784a50.848 50.848 0 0 0 34.672 15.216z m252.8 0a51.088 51.088 0 0 0 36.848-14.048 49.984 49.984 0 0 0 15.408-35.952 49.552 49.552 0 0 0-15.408-35.952 50.672 50.672 0 0 0-36.848-14.048 50.848 50.848 0 0 0-34.672 15.216 49.744 49.744 0 0 0-14.24 34.784c0 12.976 5.12 25.456 14.24 34.784a50.848 50.848 0 0 0 34.672 15.216z m-126.4 366.208c-11.04 0-21.6-4.32-29.408-12.048a40.912 40.912 0 0 1-12.192-29.088c0-10.912 4.384-21.376 12.192-29.088a41.84 41.84 0 0 1 29.408-12.048c11.04 0 21.6 4.32 29.408 12.048a40.912 40.912 0 0 1 12.192 29.088c0 10.912-4.384 21.376-12.192 29.088a41.824 41.824 0 0 1-29.408 12.048z"  horiz-adv-x="1024" />
      
      <glyph glyph-name="Prompt1" unicode="&#58981;" d="M682.432 846.72c95.104 0 167.36-24.768 216.96-74.304 49.472-49.536 74.24-121.856 74.24-216.896v-213.312c0-95.104-24.768-167.36-74.24-216.96-49.6-49.472-121.856-74.24-216.96-74.24h-21.312a7.36 7.36 0 0 1-6.016-3.072l-64-85.248c-21.12-28.16-47.552-42.24-79.36-42.24-31.744 0-58.24 14.08-79.36 42.24l-63.872 85.248a15.36 15.36 0 0 1-5.76 2.88l-21.632 0.192c-48.256 0-88.256 3.584-119.872 10.88-38.784 8.96-70.592 24.192-95.36 45.824-26.56 23.232-46.08 54.592-58.368 93.952C55.808 239.104 49.92 285.952 49.92 342.208V555.52c0 95.04 24.768 167.36 74.304 216.896C173.76 821.952 246.08 846.72 341.12 846.72h341.312z m0-70.4H341.12c-75.584 0-131.328-17.92-167.104-53.696-35.84-35.84-53.696-91.52-53.696-167.104v-213.312c0-90.688 17.28-151.232 51.968-181.504 15.872-13.888 37.44-24 64.64-30.208 26.624-6.08 61.312-9.088 104.192-9.088h21.312c11.52 0 23.104-2.944 34.752-8.768 11.648-5.76 20.8-13.248 27.648-22.528l63.936-85.184c7.04-9.408 14.72-14.08 23.04-14.08 8.32 0 16 4.672 23.04 14.08l64.128 85.504a74.24 74.24 0 0 0 62.144 30.976h21.312c75.648 0 131.328 17.92 167.104 53.696 35.84 35.776 53.76 91.52 53.76 167.04V555.52c0 75.584-17.92 131.328-53.76 167.104-35.776 35.84-91.52 53.696-167.04 53.696zM322.56 619.52a298.56 298.56 0 0 0 117.12-103.488c11.52-17.152 17.28-35.84 17.28-56.256 0-20.352-5.76-39.04-17.28-56.128a300.48 300.48 0 0 0-117.12-103.168 33.92 33.92 0 0 0-26.88-1.92 33.92 33.92 0 0 0-20.352 17.664 33.92 33.92 0 0 0-1.92 26.88 33.92 33.92 0 0 0 17.664 20.352 231.488 231.488 0 0 1 90.24 79.488 27.84 27.84 0 0 1 0 33.664 229.632 229.632 0 0 1-90.24 79.872 33.92 33.92 0 0 0-17.6 20.416 33.92 33.92 0 0 0 1.92 26.88 33.92 33.92 0 0 0 20.288 17.6 33.92 33.92 0 0 0 26.88-1.92z m410.88-252.288a33.92 33.92 0 0 0 24.96-10.368 33.92 33.92 0 0 0 10.24-24.832 33.92 33.92 0 0 0-10.24-24.96 33.92 33.92 0 0 0-24.96-10.24H533.12a33.92 33.92 0 0 0-24.896 10.24 33.92 33.92 0 0 0-10.304 24.96 33.92 33.92 0 0 0 10.304 24.832 33.92 33.92 0 0 0 24.896 10.368h200.32z"  horiz-adv-x="1024" />
      
      <glyph glyph-name="userguide" unicode="&#58925;" d="M512 896a512 512 0 1 1 512-512A512.518744 512.518744 0 0 1 512 896z m0-931.144883A419.144883 419.144883 0 1 0 931.144883 384 419.663627 419.663627 0 0 0 512-35.144883zM497.215805 704.064843a188.303951 188.303951 0 0 1-170.926038-111.78926 256.778116 256.778116 0 0 1-22.824721-99.598785h92.595744a164.701114 164.701114 0 0 0 15.56231 62.767984A94.670719 94.670719 0 0 0 501.365755 610.690983a96.22695 96.22695 0 0 0 91.817629-37.349544 82.998987 82.998987 0 0 0 12.190476-64.842959 456.753799 456.753799 0 0 0-62.767984-74.699088c-10.115502-10.374873-18.934144-19.193516-25.937183-25.937183-1.296859-1.815603-3.112462-3.631206-4.668693-5.446809a222.281662 222.281662 0 0 1-59.655522-162.107396H544.680851a129.685917 129.685917 0 0 0 36.571429 100.895643l5.70618 6.743668c4.668693 5.187437 12.70922 13.487335 21.26849 22.305978a526.006079 526.006079 0 0 1 76.25532 92.595744 163.922999 163.922999 0 0 1-10.115502 156.660588c-20.749747 33.718338-70.808511 89.483283-177.150963 84.555218zM511.221884 184.024316a68.733536 68.733536 0 1 1 68.474165-68.733536 68.733536 68.733536 0 0 1-68.474165 68.733536z"  horiz-adv-x="1024" />
      
    </font>
</defs>
</svg>
