<?xml version="1.0" standalone="no"?><!DOCTYPE svg PUBLIC "-//W3C//DTD SVG 1.1//EN" "http://www.w3.org/Graphics/SVG/1.1/DTD/svg11.dtd"><svg t="1758886291419" class="icon" viewBox="0 0 1024 1024" version="1.1" xmlns="http://www.w3.org/2000/svg" p-id="2479" xmlns:xlink="http://www.w3.org/1999/xlink" width="200" height="200"><path d="M128 128a85.333333 85.333333 0 0 1 85.333333-85.333333h597.333334a85.333333 85.333333 0 0 1 85.333333 85.333333v213.333333a42.666667 42.666667 0 1 1-85.333333 0V128H213.333333v768h128a42.666667 42.666667 0 1 1 0 85.333333H213.333333a85.333333 85.333333 0 0 1-85.333333-85.333333V128z" p-id="2480" fill="#2c2c2c"></path><path d="M298.666667 256a42.666667 42.666667 0 0 1 42.666666-42.666667h341.333334a42.666667 42.666667 0 1 1 0 85.333334H341.333333a42.666667 42.666667 0 0 1-42.666666-42.666667zM341.333333 384a42.666667 42.666667 0 1 0 0 85.333333h42.666667a42.666667 42.666667 0 1 0 0-85.333333H341.333333zM798.165333 567.168a42.666667 42.666667 0 0 0-60.330666 0L661.333333 643.669333l-33.834666-33.834666a42.666667 42.666667 0 0 0-60.330667 60.330666l64 64a42.666667 42.666667 0 0 0 60.330667 0l106.666666-106.666666a42.666667 42.666667 0 0 0 0-60.330667z" p-id="2481" fill="#2c2c2c"></path><path d="M454.997333 465.322667a42.666667 42.666667 0 0 0-28.330666 40.192v268.16a42.666667 42.666667 0 0 0 17.578666 34.56l213.333334 154.88a42.666667 42.666667 0 0 0 50.176 0l213.333333-154.88a42.666667 42.666667 0 0 0 17.578667-34.56v-268.16a42.666667 42.666667 0 0 0-28.330667-40.192L711.381333 394.24a85.333333 85.333333 0 0 0-57.429333 0l-198.954667 71.082667zM853.333333 535.552v216.405333l-170.666666 123.904-170.666667-123.904v-216.405333l170.666667-60.928 170.666666 60.928z" p-id="2482" fill="#2c2c2c"></path></svg>