<?xml version="1.0" standalone="no"?><!DOCTYPE svg PUBLIC "-//W3C//DTD SVG 1.1//EN" "http://www.w3.org/Graphics/SVG/1.1/DTD/svg11.dtd"><svg t="1758886265084" class="icon" viewBox="0 0 1024 1024" version="1.1" xmlns="http://www.w3.org/2000/svg" p-id="1981" width="200" height="200" xmlns:xlink="http://www.w3.org/1999/xlink"><path d="M853.333333 85.333333c-25.6 0-42.666667 17.066667-42.666666 42.666667v682.666667c0 25.6-17.066667 42.666667-42.666667 42.666666H277.333333c-34.133333 0-64-8.533333-64-42.666666s29.866667-42.666667 64-42.666667H682.666667c25.6 0 42.666667-17.066667 42.666666-42.666667V128c0-25.6-17.066667-42.666667-42.666666-42.666667H213.333333c-46.933333 0-85.333333 38.4-85.333333 85.333334v682.666666c0 46.933333 38.4 85.333333 85.333333 85.333334h597.333334c46.933333 0 85.333333-38.4 85.333333-85.333334V128c0-25.6-17.066667-42.666667-42.666667-42.666667zM307.2 358.4c4.266667-21.333333 17.066667-38.4 29.866667-55.466667 17.066667-12.8 34.133333-25.6 55.466666-29.866666 21.333333-8.533333 42.666667-12.8 68.266667-12.8 21.333333 0 38.4 4.266667 55.466667 8.533333 12.8 4.266667 29.866667 12.8 38.4 21.333333 12.8 8.533333 21.333333 17.066667 21.333333 21.333334 4.266667 8.533333 8.533333 17.066667 8.533333 25.6 0 12.8 0 17.066667-8.533333 25.6s-25.6 12.8-38.4 4.266666c-4.266667 0-8.533333-4.266667-12.8-8.533333-4.266667-12.8-12.8-21.333333-17.066667-25.6-8.533333-4.266667-12.8-8.533333-21.333333-12.8-8.533333-4.266667-21.333333-4.266667-34.133333-4.266667-12.8 0-25.6 4.266667-34.133334 8.533334-8.533333 4.266667-17.066667 12.8-25.6 21.333333-8.533333 8.533333-12.8 21.333333-12.8 29.866667-4.266667 12.8-4.266667 25.6-4.266666 42.666666 0 34.133333 4.266667 64 21.333333 81.066667 12.8 17.066667 34.133333 25.6 64 25.6 12.8 0 25.6 0 38.4-4.266667 12.8 0 21.333333-8.533333 34.133333-12.8v-42.666666h-42.666666c-12.8 0-21.333333 0-29.866667-4.266667-8.533333 0-12.8-8.533333-12.8-21.333333 0-8.533333 4.266667-17.066667 8.533333-21.333334 8.533333-4.266667 17.066667-8.533333 25.6-8.533333h68.266667c8.533333 0 12.8 4.266667 21.333333 4.266667 8.533333 4.266667 12.8 8.533333 17.066667 12.8 4.266667 4.266667 8.533333 12.8 8.533333 25.6V512c0 8.533333-4.266667 17.066667-4.266666 21.333333s-4.266667 8.533333-8.533334 12.8c-4.266667 4.266667-8.533333 8.533333-17.066666 12.8-21.333333 8.533333-38.4 17.066667-55.466667 21.333334-17.066667 4.266667-34.133333 8.533333-55.466667 8.533333s-42.666667-4.266667-64-12.8-38.4-21.333333-51.2-34.133333c-17.066667-12.8-25.6-29.866667-34.133333-51.2s-12.8-42.666667-12.8-68.266667c0-21.333333 4.266667-46.933333 12.8-64z" fill="#2c2c2c" p-id="1982"></path></svg>