<svg width="1024" height="1024" xmlns="http://www.w3.org/2000/svg" t="1758459428796" class="icon" version="1.1" p-id="44032">
 <g>
  <title>Layer 1</title>
  <path d="m513.35243,511.33335m-509.44,0a509.44,509.44 0 1 0 1018.88,0a509.44,509.44 0 1 0 -1018.88,0z" fill="#ffffff" p-id="44033" id="svg_1" stroke="null"/>
  <line fill="none" x1="660.64112" y1="438.97929" x2="687.97388" y2="591.64263" id="svg_7" stroke="null"/>
  <g stroke="null" id="svg_6">
   <path stroke="null" d="m710.15437,248.2336l-415.07457,0c-56.05346,0 -101.45422,42.33217 -101.45422,94.59703l0,306.5535c0,52.26486 45.40076,94.59703 101.45422,94.59703l110.14124,0l178.17897,101.21882l0,-101.21882l126.81777,0c56.05346,0 101.45422,-42.33217 101.45422,-94.59703l0,-306.5535c-0.06341,-52.20574 -45.46417,-94.59703 -101.51763,-94.59703z" fill="#1e33ae" p-id="44034" id="svg_2"/>
   <path stroke="null" d="m400.29776,394.30322l93.65493,221.83004l-29.67536,0l-25.30015,-62.13842l-109.38033,0l-25.30015,62.13842l-29.29491,0l93.65493,-221.83004l31.64103,0zm29.9924,138.28904l-44.9569,-110.91502l-1.33159,0l-45.6544,110.91502l91.94289,0z" fill="#FFFFFF" p-id="44035" id="svg_3"/>
   <rect stroke="null" fill="#ffffff" x="552.05988" y="443.21258" width="29.61915" height="172.92065" id="svg_8"/>
   <g stroke="null" id="svg_4">
    <path stroke="null" id="svg_5" d="m581.63408,443.1308l0,1.44471a6.57009,6.10437 0 0 1 -3.89095,5.57532l-6.81099,2.82836a9.84783,9.14978 0 0 1 -8.00091,0.01357l-6.9351,-2.84871a6.57009,6.10437 0 0 1 -3.90555,-5.58211l0,-1.42436l29.54351,0l0,-0.00678zm-50.10061,-17.31607a3.76685,3.49984 0 1 1 5.32907,4.95133l-4.75237,4.40872a3.76685,3.49984 0 1 1 -5.32907,-4.95133l4.74507,-4.40872l0.00729,0l0.00001,0zm66.77404,-1.15305a3.76685,3.49984 0 0 1 3.63545,0.90209l5.02247,4.66646a3.76685,3.49984 0 0 1 -5.32907,4.95133l-5.02247,-4.66646a3.76685,3.49984 0 0 1 1.69362,-5.8602l0,0.00678zm-31.44154,-63.30916a39.39136,36.59912 0 0 1 14.77541,70.53944l0,4.17132l-11.00126,0c0.0949,-17.8926 5.43858,-32.19718 8.20532,-33.1671c1.31401,0 2.89815,1.61427 4.21947,4.31376a3.76685,3.49984 0 0 0 6.86209,-2.91654c-3.42375,-6.93864 -7.91332,-8.39691 -11.08156,-8.39691c-5.66488,0 -9.51204,6.21969 -11.97947,14.16893c-2.46744,-7.94926 -6.31458,-14.16893 -11.97947,-14.16893c-3.16824,0 -7.66511,1.45826 -11.07426,8.40369a3.76685,3.49984 0 1 0 6.8548,2.90975c1.32132,-2.69949 2.89815,-4.30697 4.07346,-4.32733c2.91275,0.98349 8.24911,15.28807 8.35132,33.18067l-11.00126,0l0,-4.1781a39.39865,36.6059 0 0 1 14.77541,-70.52589l0,-0.00678l0,0.00001zm-46.57466,33.07893a3.76685,3.49984 0 0 1 0,6.99968l-6.35109,0a3.76685,3.49984 0 1 1 0,-6.99968l6.35109,0zm99.50041,0a3.76685,3.49984 0 1 1 0,6.99968l-6.8986,0a3.76685,3.49984 0 1 1 0,-6.99968l6.9059,0l-0.00729,0zm-18.16266,-33.75041a3.76685,3.49984 0 1 1 5.32907,4.95132l-4.62827,4.29341a3.76685,3.49984 0 1 1 -5.32907,-4.95133l4.62827,-4.29341l0,0.00001zm-73.16163,-0.91566a3.76685,3.49984 0 0 1 3.64275,0.90887l4.33626,4.02888a3.76685,3.49984 0 0 1 -5.32907,4.95133l-4.33626,-4.02888a3.76685,3.49984 0 0 1 1.68633,-5.8602l-0.00001,0zm38.39854,-14.51485c2.08053,0 3.76685,1.56679 3.76685,3.49984l0,5.77881a3.76685,3.49984 0 1 1 -7.53371,0l0,-5.77881c0,-1.93305 1.68633,-3.49984 3.76686,-3.49984z" fill="#ffffff" p-id="51371"/>
   </g>
   <rect stroke="null" fill="#ffffff" x="627.54845" y="483.62989" width="29.61915" height="132.50335" id="svg_9"/>
   <rect stroke="null" fill="#ffffff" x="700.61728" y="513.94286" width="29.61915" height="102.19038" id="svg_10"/>
  </g>
 </g>

</svg>