<svg width="352" height="100" xmlns="http://www.w3.org/2000/svg" clip-rule="evenodd" version="1.1">
 <g id="Layer_1">
  <title>Layer 1</title>
  <g id="svg_3">
   <path id="svg_1" d="m90.5,10.5c-1.6667,0 -3.3333,0 -5,0c0.2373,1.291 -0.096,2.291 -1,3c0,-1.3333 0,-2.6667 0,-4c2.2354,-0.2947 4.2354,0.0386 6,1z" fill="#9cc5e9"/>
  </g>
  <g id="svg_5">
   <path id="svg_4" d="m297.5,12.5c1.448,9.6852 3.114,19.3519 5,29c0.607,-0.1236 0.94,-0.4569 1,-1c1.012,-1.3717 2.012,-2.705 3,-4c1.745,-1.5326 2.745,-3.5326 3,-6c2.349,-7.4564 3.682,-15.1231 4,-23c6.822,4.0153 13.322,8.682 19.5,14c-0.277,4.5088 -1.61,8.8421 -4,13c-3.373,3.871 -6.873,7.5377 -10.5,11c1.869,7.409 5.536,13.743 11,19c-7.024,2.929 -13.857,6.262 -20.5,10c-4.039,-7.482 -6.539,-15.482 -7.5,-24c-2.915,1.204 -5.081,3.204 -6.5,6c-1.918,5.786 -4.585,11.119 -8,16c-4.068,-2.619 -8.234,-5.119 -12.5,-7.5c-1.624,-1.117 -2.624,-2.617 -3,-4.5c3.307,-8.142 8.64,-14.6421 16,-19.5c-2.08,-5.0386 -5.413,-8.8719 -10,-11.5c-1.541,-1.1668 -2.875,-2.5001 -4,-4c6.635,-5.9926 13.301,-11.9926 20,-18c2.111,1.1046 3.445,2.7712 4,5z" fill="#1c76cd"/>
  </g>
  <g id="svg_7">
   <path id="svg_6" d="m26.5,31.5c2.6197,-3.8422 4.2863,-8.1756 5,-13c-0.17,-1.3221 0.1634,-2.4887 1,-3.5c12.5127,-0.7877 24.8461,-2.621 37,-5.5c-0.3416,17.4428 0.4918,34.7762 2.5,52c-6.0818,4.627 -12.5818,8.627 -19.5,12c-0.9941,-4.956 -1.3275,-9.956 -1,-15c-5.3326,0.433 -10.666,0.933 -16,1.5c-2.221,3.831 -3.5543,7.998 -4,12.5c-7.5918,-2.478 -13.2585,-7.312 -17,-14.5c5.486,-8.1403 9.486,-16.9736 12,-26.5z" fill="#1a76cd"/>
  </g>
  <g id="svg_9">
   <path id="svg_8" d="m90.5,10.5c5.2303,1.1538 10.564,1.8205 16,2c-0.525,5.0996 -1.525,10.0996 -3,15c-1.424,2.0145 -2.09,4.3478 -2,7c0,0.3333 0,0.6667 0,1c-1.5444,5.1058 -2.5444,10.4391 -3,16c-1.3108,4.536 -1.9774,9.203 -2,14c-0.6657,2.528 -1.3324,5.194 -2,8c-1.5709,-0.809 -3.2376,-1.143 -5,-1c-3.7011,-2.282 -7.2011,-4.949 -10.5,-8c0.0459,-7.677 0.5459,-15.3437 1.5,-23c1.2868,-1.3714 1.9535,-3.2047 2,-5.5c0.5405,-4.4887 0.8738,-8.9887 1,-13.5c-0.2359,-3.1085 0.0975,-6.1085 1,-9c0.904,-0.709 1.2373,-1.709 1,-3c1.6667,0 3.3333,0 5,0z" fill="#1975cc"/>
  </g>
  <g id="svg_11">
   <path id="svg_10" d="m176.5,72.5c-7.035,0.174 -14.035,-0.159 -21,-1c-3.871,-2.839 -7.204,-6.339 -10,-10.5c4.315,-6.483 7.982,-13.3162 11,-20.5c1.713,-1.1354 2.38,-2.802 2,-5c-3.045,0.0079 -6.045,0.3413 -9,1c0,-2.3333 0,-4.6667 0,-7c1.101,-5.1198 3.101,-9.9532 6,-14.5c12.362,-3.9293 25.029,-5.596 38,-5c10.082,4.3916 15.916,11.8916 17.5,22.5c-3.244,6.4094 -7.744,11.7428 -13.5,16c3.333,2.333 6.667,4.667 10,7c-7.345,11.171 -17.678,16.838 -31,17z" fill="#1c76cd"/>
  </g>
  <g id="svg_13">
   <path id="svg_12" d="m238.5,73.5c-2.667,-0.333 -5.333,-0.667 -8,-1c-6.149,-2.64 -11.316,-6.64 -15.5,-12c-1.41,-5.879 -1.91,-11.8792 -1.5,-18c1.574,-1.6016 2.241,-3.6016 2,-6c2.713,-10.2145 8.879,-17.5478 18.5,-22c2.15,0.9825 3.983,2.3158 5.5,4c2.54,1.9127 5.207,2.246 8,1c3.422,-2.8899 7.089,-5.5566 11,-8c4.818,2.6069 7.984,6.6069 9.5,12c3.71,24.9427 -6.123,41.609 -29.5,50z" fill="#1a75cc"/>
  </g>
  <g id="svg_15">
   <path id="svg_14" d="m112.5,15.5c7.182,-0.3213 10.348,3.0121 9.5,10c-1.46,2.7351 -2.627,5.5685 -3.5,8.5c-3.057,0.2565 -6.057,0.7565 -9,1.5c0.113,-6.6869 1.113,-13.3536 3,-20z" fill="#cbcbcb"/>
  </g>
  <g id="svg_17">
   <path id="svg_16" d="m239.5,18.5c2.667,0.3333 5.333,0.6667 8,1c-2.793,1.246 -5.46,0.9127 -8,-1z" fill="#9dc5e9"/>
  </g>
  <g id="svg_19">
   <path id="svg_18" d="m31.5,18.5c-0.7137,4.8244 -2.3803,9.1578 -5,13c1.1122,-4.6892 2.7788,-9.0225 5,-13z" fill="#9cc5e9"/>
  </g>
  <g id="svg_21">
   <path id="svg_20" d="m339.5,21.5c2.936,1.7553 5.769,3.7553 8.5,6c0.667,3 0.667,6 0,9c-3.083,7.1575 -7.416,13.4908 -13,19c-0.333,1.333 -0.667,2.667 -1,4c-3.766,-3.197 -6.266,-7.197 -7.5,-12c5.417,-5.8221 9.583,-12.4888 12.5,-20c0.495,-1.9727 0.662,-3.9727 0.5,-6z" fill="#c9c9c9"/>
  </g>
  <g id="svg_23">
   <path id="svg_22" d="m297.5,12.5c1.632,3.0575 2.799,6.3909 3.5,10c0.75,6.1592 1.583,12.1592 2.5,18c-0.06,0.5431 -0.393,0.8764 -1,1c-1.886,-9.6481 -3.552,-19.3148 -5,-29z" fill="#5b99d9"/>
  </g>
  <g id="svg_25">
   <path id="svg_24" d="m273.5,25.5c1.125,1.4999 2.459,2.8332 4,4c-1.617,-0.538 -3.284,-0.8713 -5,-1c-0.237,-1.291 0.096,-2.291 1,-3z" fill="#73ace0"/>
  </g>
  <g id="svg_27">
   <path id="svg_26" d="m47.5,28.5c0.9959,-0.0858 1.8292,0.2476 2.5,1c0.5004,7.0059 1.0004,14.0059 1.5,21c-4.3839,0.326 -8.7172,-0.008 -13,-1c2.8124,-7.1112 5.8124,-14.1112 9,-21z" fill="#CCCCCC"/>
  </g>
  <g id="svg_29">
   <path id="svg_28" d="m177.5,31.5c6.037,-0.3293 12.037,0.0041 18,1c-4.974,8.1563 -12.307,12.1563 -22,12c0.244,-4.6891 1.577,-9.0224 4,-13z" fill="#CCCCCC"/>
  </g>
  <g id="svg_31">
   <path id="svg_30" d="m249.5,34.5c0.318,5.1591 -0.348,10.1591 -2,15c-2.401,4.878 -6.067,8.211 -11,10c-0.637,-11.6618 3.363,-21.3285 12,-29c0.929,1.1888 1.262,2.5222 1,4z" fill="#CCCCCC"/>
  </g>
  <g id="svg_33">
   <path id="svg_32" d="m103.5,27.5c0.09,2.6522 -0.576,4.9855 -2,7c-0.09,-2.6522 0.576,-4.9855 2,-7z" fill="#74aee0"/>
  </g>
  <g id="svg_35">
   <path id="svg_34" d="m309.5,30.5c-0.255,2.4674 -1.255,4.4674 -3,6c0.255,-2.4674 1.255,-4.4674 3,-6z" fill="#79b0e1"/>
  </g>
  <g id="svg_37">
   <path id="svg_36" d="m149.5,29.5c0,2.3333 0,4.6667 0,7c2.955,-0.6587 5.955,-0.9921 9,-1c0.38,2.198 -0.287,3.8646 -2,5c0.039,-1.0832 0.373,-2.0832 1,-3c-0.667,-0.3333 -1.333,-0.6667 -2,-1c-2.282,0.7234 -4.616,1.0567 -7,1c-0.306,-2.8854 0.027,-5.5521 1,-8z" fill="#84b7e4"/>
  </g>
  <g id="svg_39">
   <path id="svg_38" d="m83.5,22.5c-0.1262,4.5113 -0.4595,9.0113 -1,13.5c-0.0465,2.2953 -0.7132,4.1286 -2,5.5c-0.0495,-6.6405 0.9505,-12.9739 3,-19z" fill="#5294d8"/>
  </g>
  <g id="svg_41">
   <path id="svg_40" d="m140.5,44.5c-9.41,-2.0975 -19.077,-2.5975 -29,-1.5c-1.558,0.21 -2.891,0.71 -4,1.5c-1.192,-1.0659 -0.859,-1.8992 1,-2.5c10.633,-1.1955 21.3,-1.6955 32,-1.5c0,1.3333 0,2.6667 0,4z" fill="#3e88d3"/>
  </g>
  <g id="svg_43">
   <path id="svg_42" d="m215.5,36.5c0.241,2.3984 -0.426,4.3984 -2,6c-0.241,-2.3984 0.426,-4.3984 2,-6z" fill="#9ac4e9"/>
  </g>
  <g id="svg_45">
   <path id="svg_44" d="m140.5,44.5c0.961,1.7646 1.295,3.7646 1,6c-6.992,0.722 -13.992,1.388 -21,2c-3.928,0.524 -7.261,-0.476 -10,-3c-0.748,-1.8325 -1.748,-3.4991 -3,-5c1.109,-0.79 2.442,-1.29 4,-1.5c9.923,-1.0975 19.59,-0.5975 29,1.5z" fill="#1b76cd"/>
  </g>
  <g id="svg_47">
   <path id="svg_46" d="m249.5,34.5c1.145,3.8112 1.312,7.8112 0.5,12c-0.377,1.4423 -1.21,2.4423 -2.5,3c1.652,-4.8409 2.318,-9.8409 2,-15z" fill="#78aee1"/>
  </g>
  <g id="svg_49">
   <path id="svg_48" d="m101.5,35.5c0.26,5.6939 -0.74,11.0273 -3,16c0.4556,-5.5609 1.4556,-10.8942 3,-16z" fill="#bcd8f0"/>
  </g>
  <g id="svg_51">
   <path id="svg_50" d="m110.5,49.5c2.739,2.524 6.072,3.524 10,3c-2.719,1.413 -5.719,2.08 -9,2c-0.129,-1.716 -0.462,-3.383 -1,-5z" fill="#a8cbeb"/>
  </g>
  <g id="svg_53">
   <path id="svg_52" d="m187.5,56.5c-4.971,-1.763 -9.971,-2.096 -15,-1c1.194,-1.277 2.86,-1.944 5,-2c3.067,0.107 6.067,0.607 9,1.5c0.556,0.383 0.889,0.883 1,1.5z" fill="#9ec6e9"/>
  </g>
  <g id="svg_55">
   <path id="svg_54" d="m187.5,56.5c-0.384,1.793 -1.55,2.793 -3.5,3c-4.698,1.735 -9.531,2.735 -14.5,3c0.511,-2.522 1.511,-4.855 3,-7c5.029,-1.096 10.029,-0.763 15,1z" fill="#CCCCCC"/>
  </g>
  <g id="svg_57">
   <path id="svg_56" d="m104.5,53.5c1.418,1.687 2.751,3.52 4,5.5c10.388,0.614 20.721,0.114 31,-1.5c-0.437,3.307 0.23,6.307 2,9c-7.957,1.394 -15.957,1.894 -24,1.5c-0.616,-2.179 -1.783,-4.012 -3.5,-5.5c-1.888,7.799 -3.055,15.799 -3.5,24c-4.773,3.633 -9.773,3.8 -15,0.5c-4.7262,-2.69 -9.0596,-5.856 -13,-9.5c-6.7618,5.048 -14.0951,9.048 -22,12c-5.7572,-1.204 -7.4238,-4.537 -5,-10c5.4639,-2.968 10.7972,-6.134 16,-9.5c1.3333,-0.667 2.6667,-0.667 4,0c6.1903,6.933 13.857,10.266 23,10c0.854,-1.022 1.854,-1.855 3,-2.5c0.558,-8.11 1.558,-16.11 3,-24z" fill="#cacaca"/>
  </g>
  <g id="svg_59">
   <path id="svg_58" d="m337.5,63.5c2.502,2.343 5.002,4.677 7.5,7c1.458,4.281 0.292,7.447 -3.5,9.5c-7.784,2.224 -15.118,5.557 -22,10c-2.135,0.635 -4.135,0.301 -6,-1c-0.804,-1.771 -1.971,-3.271 -3.5,-4.5c-0.667,-1 -0.667,-2 0,-3c7.429,-4.466 15.263,-7.966 23.5,-10.5c2.897,-1.715 4.231,-4.215 4,-7.5z" fill="#c9c9c9"/>
  </g>
  <g id="svg_61">
   <path id="svg_60" d="m39.5,65.5c2,0 4,0 6,0c3.1207,26.42 -4.546,30.087 -23,11c0.1667,-0.333 0.3333,-0.667 0.5,-1c3.1676,4.033 7.0009,4.867 11.5,2.5c1.9624,-4.055 3.629,-8.222 5,-12.5z" fill="#cccccc"/>
  </g>
  <g id="svg_63">
   <path id="svg_62" d="m208.5,64.5c2.6,2.415 5.434,4.749 8.5,7c0.781,1.444 0.614,2.777 -0.5,4c-5.865,5.033 -12.532,8.533 -20,10.5c-10.288,1.505 -20.622,1.838 -31,1c-5.511,-1.259 -9.844,-4.259 -13,-9c14.466,2.366 28.8,1.366 43,-3c3.002,-2.503 6.335,-4.503 10,-6c1.641,-1.129 2.641,-2.629 3,-4.5z" fill="#c9c9c9"/>
  </g>
  <g id="svg_65">
   <path id="svg_64" d="m263.5,64.5c6.589,3.977 12.922,8.477 19,13.5c3.692,2.159 7.192,1.993 10.5,-0.5c1.674,-3.521 2.84,-7.187 3.5,-11c1,0 2,0 3,0c0.722,4.835 2.056,9.501 4,14c-0.375,6.55 -3.709,9.05 -10,7.5c-6.593,-4.879 -13.426,-9.379 -20.5,-13.5c-4.489,3.152 -8.989,6.319 -13.5,9.5c-14.44,7.397 -27.107,4.897 -38,-7.5c0.333,-0.333 0.667,-0.667 1,-1c4.868,3.337 10.201,4.837 16,4.5c6.727,-2.197 13.061,-5.197 19,-9c2.206,-2.037 4.206,-4.203 6,-6.5z" fill="#cacaca"/>
  </g>
  <g id="svg_67">
   <path id="svg_66" d="m155.5,71.5c6.965,0.841 13.965,1.174 21,1c-2.814,0.665 -5.814,0.998 -9,1c-4.297,0.222 -8.297,-0.445 -12,-2z" fill="#a2caeb"/>
  </g>
  <g id="svg_69">
   <path id="svg_68" d="m96.5,65.5c0,3 0,6 0,9c-2.7282,0.329 -5.0615,-0.337 -7,-2c1.7624,-0.143 3.4291,0.191 5,1c0.6676,-2.806 1.3343,-5.472 2,-8z" fill="#83b6e3"/>
  </g>
  <g id="svg_71">
   <path id="svg_70" d="m230.5,72.5c2.667,0.333 5.333,0.667 8,1c-2.793,1.246 -5.46,0.913 -8,-1z" fill="#85b8e4"/>
  </g>
 </g>
</svg>