<?xml version="1.0" standalone="no"?><!DOCTYPE svg PUBLIC "-//W3C//DTD SVG 1.1//EN" "http://www.w3.org/Graphics/SVG/1.1/DTD/svg11.dtd"><svg t="1758457677610" class="icon" viewBox="0 0 1024 1024" version="1.1" xmlns="http://www.w3.org/2000/svg" p-id="33936" xmlns:xlink="http://www.w3.org/1999/xlink" width="200" height="200"><path d="M42.666667 426.666667a213.333333 213.333333 0 0 1 213.333333-213.333334h256a213.333333 213.333333 0 0 1 0 426.666667 42.666667 42.666667 0 1 1 0-85.333333 128 128 0 1 0 0-256H256a128 128 0 0 0-32 251.946666 42.666667 42.666667 0 0 1-21.333333 82.645334A213.418667 213.418667 0 0 1 42.666667 426.666667z m469.333333 42.666666a128 128 0 1 0 0 256h256a128 128 0 0 0 32-251.946666 42.666667 42.666667 0 0 1 21.333333-82.645334A213.418667 213.418667 0 0 1 768 810.666667h-256a213.333333 213.333333 0 0 1 0-426.666667 42.666667 42.666667 0 1 1 0 85.333333z" p-id="33937"></path></svg>