<?xml version="1.0" encoding="UTF-8"?>
<!DOCTYPE svg PUBLIC "-//W3C//DTD SVG 1.1//EN" "http://www.w3.org/Graphics/SVG/1.1/DTD/svg11.dtd">
<svg xmlns="http://www.w3.org/2000/svg" version="1.1" width="512px" height="512px" style="shape-rendering:geometricPrecision; text-rendering:geometricPrecision; image-rendering:optimizeQuality; fill-rule:evenodd; clip-rule:evenodd" xmlns:xlink="http://www.w3.org/1999/xlink">
<g><path style="opacity:0.998" fill="#2293e3" d="M 232.5,-0.5 C 247.833,-0.5 263.167,-0.5 278.5,-0.5C 292.385,0.981176 306.052,3.64784 319.5,7.5C 215.167,111.167 111.167,215.167 7.5,319.5C 3.64784,306.052 0.981176,292.385 -0.5,278.5C -0.5,263.167 -0.5,247.833 -0.5,232.5C 0.338246,232.158 0.67158,231.492 0.5,230.5C 76.8333,153.5 153.5,76.8333 230.5,0.5C 231.492,0.67158 232.158,0.338246 232.5,-0.5 Z"/></g>
<g><path style="opacity:0.99" fill="#2697e9" d="M 230.5,0.5 C 153.5,76.8333 76.8333,153.5 0.5,230.5C 9.0224,153.93 44.0224,92.7633 105.5,47C 142.894,20.3153 184.56,4.81527 230.5,0.5 Z"/></g>
<g><path style="opacity:0.999" fill="#1f8fdd" d="M 319.5,7.5 C 340.914,12.2156 360.914,20.2156 379.5,31.5C 314.785,97.2157 249.451,162.216 183.5,226.5C 168.92,211.084 151.586,207.251 131.5,215C 105.075,230.957 98.9081,252.791 113,280.5C 115.696,284.361 118.863,287.694 122.5,290.5C 91.5227,319.81 61.1894,349.81 31.5,380.5C 20.4507,361.396 12.4507,341.063 7.5,319.5C 111.167,215.167 215.167,111.167 319.5,7.5 Z"/></g>
<g><path style="opacity:0.999" fill="#1a8cd7" d="M 379.5,31.5 C 396.751,40.2879 412.418,51.2879 426.5,64.5C 375.833,114.5 325.5,164.833 275.5,215.5C 247.885,205.565 227.385,213.565 214,239.5C 212.56,243.041 211.726,246.708 211.5,250.5C 210.71,251.609 210.21,252.942 210,254.5C 203.346,247.794 196.513,241.461 189.5,235.5C 187.748,232.328 185.748,229.328 183.5,226.5C 249.451,162.216 314.785,97.2157 379.5,31.5 Z"/></g>
<g><path style="opacity:0.998" fill="#1688d1" d="M 426.5,64.5 C 443.19,79.2626 457.523,95.9292 469.5,114.5C 468.761,114.369 468.094,114.536 467.5,115C 438.811,144.025 409.977,172.525 381,200.5C 377.596,204.394 374.429,208.394 371.5,212.5C 350.852,208.544 334.685,215.21 323,232.5C 319.109,239.339 316.942,246.672 316.5,254.5C 308.786,247.118 301.12,239.784 293.5,232.5C 288.761,225.425 282.761,219.759 275.5,215.5C 325.5,164.833 375.833,114.5 426.5,64.5 Z"/></g>
<g><path style="opacity:0.998" fill="#1184cb" d="M 469.5,114.5 C 483.562,134.629 493.895,156.629 500.5,180.5C 475.167,206.5 449.5,232.167 423.5,257.5C 416.446,250.442 409.112,243.775 401.5,237.5C 395.438,224.465 385.438,216.132 371.5,212.5C 374.429,208.394 377.596,204.394 381,200.5C 409.977,172.525 438.811,144.025 467.5,115C 468.094,114.536 468.761,114.369 469.5,114.5 Z"/></g>
<g><path style="opacity:0.996" fill="#0d80c4" d="M 500.5,180.5 C 505.96,197.47 509.627,214.803 511.5,232.5C 511.5,240.167 511.5,247.833 511.5,255.5C 496.521,270.145 481.521,284.812 466.5,299.5C 453.23,287.566 440.23,275.233 427.5,262.5C 426.167,260.833 424.833,259.167 423.5,257.5C 449.5,232.167 475.167,206.5 500.5,180.5 Z"/></g>
<g><path style="opacity:1" fill="#fdfefe" d="M 183.5,226.5 C 185.748,229.328 187.748,232.328 189.5,235.5C 198.563,257.75 193.896,276.583 175.5,292C 160.238,301.005 144.572,301.838 128.5,294.5C 126.5,293.167 124.5,291.833 122.5,290.5C 118.863,287.694 115.696,284.361 113,280.5C 98.9081,252.791 105.075,230.957 131.5,215C 151.586,207.251 168.92,211.084 183.5,226.5 Z"/></g>
<g><path style="opacity:1" fill="#fefefe" d="M 275.5,215.5 C 282.761,219.759 288.761,225.425 293.5,232.5C 304.546,254.748 300.88,274.248 282.5,291C 271.232,298.222 258.899,301.055 245.5,299.5C 222.072,291.665 210.738,275.332 211.5,250.5C 211.726,246.708 212.56,243.041 214,239.5C 227.385,213.565 247.885,205.565 275.5,215.5 Z"/></g>
<g><path style="opacity:1" fill="#fdfefe" d="M 371.5,212.5 C 385.438,216.132 395.438,224.465 401.5,237.5C 407.46,252.315 406.293,266.648 398,280.5C 384.965,296.975 368.132,302.808 347.5,298C 327.736,290.33 317.402,275.83 316.5,254.5C 316.942,246.672 319.109,239.339 323,232.5C 334.685,215.21 350.852,208.544 371.5,212.5 Z"/></g>
<g><path style="opacity:1" fill="#0b7db9" d="M 293.5,232.5 C 301.12,239.784 308.786,247.118 316.5,254.5C 317.402,275.83 327.736,290.33 347.5,298C 368.132,302.808 384.965,296.975 398,280.5C 406.293,266.648 407.46,252.315 401.5,237.5C 409.112,243.775 416.446,250.442 423.5,257.5C 424.833,259.167 426.167,260.833 427.5,262.5C 373.216,318.451 318.216,373.784 262.5,428.5C 260.5,426.833 258.5,425.167 256.5,423.5C 240.167,406.5 223.5,389.833 206.5,373.5C 200.5,367.167 194.5,360.833 188.5,354.5C 188.81,353.262 189.31,353.262 190,354.5C 208.368,335.965 226.868,317.632 245.5,299.5C 258.899,301.055 271.232,298.222 282.5,291C 300.88,274.248 304.546,254.748 293.5,232.5 Z"/></g>
<g><path style="opacity:0.997" fill="#087cbb" d="M 511.5,255.5 C 511.5,263.167 511.5,270.833 511.5,278.5C 501.195,364.976 459.195,431.142 385.5,477C 362.388,490.537 337.721,500.037 311.5,505.5C 310.761,505.631 310.094,505.464 309.5,505C 314.5,500 319.5,495 324.5,490C 303.031,471.034 282.365,450.534 262.5,428.5C 318.216,373.784 373.216,318.451 427.5,262.5C 440.23,275.233 453.23,287.566 466.5,299.5C 481.521,284.812 496.521,270.145 511.5,255.5 Z"/></g>
<g><path style="opacity:1" fill="#097cb3" d="M 189.5,235.5 C 196.513,241.461 203.346,247.794 210,254.5C 210.21,252.942 210.71,251.609 211.5,250.5C 210.738,275.332 222.072,291.665 245.5,299.5C 226.868,317.632 208.368,335.965 190,354.5C 189.31,353.262 188.81,353.262 188.5,354.5C 179.5,345.833 170.5,337.167 161.5,328.5C 150.451,317.119 139.451,305.786 128.5,294.5C 144.572,301.838 160.238,301.005 175.5,292C 193.896,276.583 198.563,257.75 189.5,235.5 Z"/></g>
<g><path style="opacity:0.997" fill="#1a8cd7" d="M 122.5,290.5 C 124.5,291.833 126.5,293.167 128.5,294.5C 139.451,305.786 150.451,317.119 161.5,328.5C 129.167,361.167 96.8333,393.833 64.5,426.5C 51.5505,412.615 40.5505,397.282 31.5,380.5C 61.1894,349.81 91.5227,319.81 122.5,290.5 Z"/></g>
<g><path style="opacity:0.998" fill="#1688d1" d="M 161.5,328.5 C 170.5,337.167 179.5,345.833 188.5,354.5C 194.5,360.833 200.5,367.167 206.5,373.5C 206.291,374.922 205.791,376.255 205,377.5C 174.713,407.953 144.213,438.287 113.5,468.5C 95.1096,457.103 78.7763,443.103 64.5,426.5C 96.8333,393.833 129.167,361.167 161.5,328.5 Z"/></g>
<g><path style="opacity:0.997" fill="#1184cb" d="M 206.5,373.5 C 223.5,389.833 240.167,406.5 256.5,423.5C 231.884,449.783 206.551,475.45 180.5,500.5C 156.131,493.813 133.797,483.146 113.5,468.5C 144.213,438.287 174.713,407.953 205,377.5C 205.791,376.255 206.291,374.922 206.5,373.5 Z"/></g>
<g><path style="opacity:0.997" fill="#0d80c4" d="M 256.5,423.5 C 258.5,425.167 260.5,426.833 262.5,428.5C 282.365,450.534 303.031,471.034 324.5,490C 319.5,495 314.5,500 309.5,505C 310.094,505.464 310.761,505.631 311.5,505.5C 300.623,508.234 289.623,510.234 278.5,511.5C 263.167,511.5 247.833,511.5 232.5,511.5C 214.818,509.552 197.484,505.886 180.5,500.5C 206.551,475.45 231.884,449.783 256.5,423.5 Z"/></g>
</svg>
